<?xml version="1.0" encoding="iso-8859-1"?>
<!-- Generator: Adobe Illustrator 19.0.0, SVG Export Plug-In . SVG Version: 6.00 Build 0)  -->
<svg version="1.1" id="Capa_1" xmlns="http://www.w3.org/2000/svg" xmlns:xlink="http://www.w3.org/1999/xlink" x="0px" y="0px"
	 viewBox="0 0 364.705 364.705" style="enable-background:new 0 0 364.705 364.705;" xml:space="preserve">
<g>
	<g>
		<path d="M321.711,129.462l-0.08-0.64c0-2.16,0-4.32,0-6.32c-0.018-39.367-31.945-71.266-71.312-71.248
			c-3.659,0.002-7.312,0.285-10.928,0.848C228.7,14.123,189.246-8,151.267,2.69c-22.232,6.258-40.067,22.877-47.876,44.612h-2.96
			C60.931,47.3,28.908,79.318,28.906,118.818c0,5.551,0.646,11.083,1.925,16.485C9.888,149.21,4.184,177.461,18.092,198.404
			c8.471,12.756,22.787,20.398,38.099,20.338h252.48c25.184-0.029,45.576-20.468,45.547-45.653
			C354.195,152.968,340.985,135.24,321.711,129.462z M308.671,205.862l0,0.24H56.191c-18.51,0.323-33.777-14.42-34.1-32.93
			c-0.222-12.734,6.791-24.493,18.1-30.35c2.546-1.335,3.787-4.287,2.96-7.04c-9.544-31.456,8.22-64.693,39.676-74.236
			c5.604-1.7,11.428-2.564,17.284-2.564c2.185-0.122,4.375-0.122,6.56,0c2.891,0.273,5.572-1.536,6.4-4.32
			c8.618-31.677,41.283-50.369,72.959-41.752c22.267,6.058,39.015,24.456,42.961,47.192c0.617,3.256,3.757,5.394,7.013,4.777
			c0.089-0.017,0.179-0.036,0.267-0.057c31.709-7.968,63.875,11.278,71.843,42.987c1.996,7.944,2.322,16.216,0.957,24.293
			c-0.572,3.264,1.61,6.374,4.874,6.946c0.029,0.005,0.057,0.01,0.086,0.014c18.336,2.853,30.888,20.03,28.035,38.366
			C339.508,193.867,325.306,205.959,308.671,205.862z"/>
	</g>
</g>
<g>
	<g>
		<path d="M239.157,240.843c-1.804-2.78-5.52-3.57-8.299-1.766c-0.56,0.364-1.056,0.819-1.467,1.346
			c-25.124,23.492-64.156,23.492-89.28,0c-2.036-2.614-5.806-3.083-8.421-1.046c-2.614,2.036-3.083,5.806-1.046,8.421
			c0.411,0.527,0.906,0.982,1.467,1.346c29.749,27.86,76.011,27.86,105.76,0h-0.48C240.17,247.338,240.961,243.622,239.157,240.843z
			"/>
	</g>
</g>
<g>
	<g>
		<path d="M263.544,276.722c-2.017-1.571-4.809-1.692-6.954-0.299c-40.542,37.841-103.458,37.841-144,0
			c-2.364-2.322-6.163-2.288-8.485,0.076c-0.053,0.054-0.104,0.108-0.155,0.164c-2.34,2.343-2.34,6.137,0,8.48
			c45.205,42.269,115.435,42.269,160.64,0C266.627,282.528,266.159,278.758,263.544,276.722z"/>
	</g>
</g>
<g>
	<g>
		<path d="M296.997,312.763c-1.804-2.78-5.52-3.57-8.299-1.766c-0.56,0.364-1.056,0.819-1.467,1.346h-0.4
			c-57.577,53.872-147.063,53.872-204.64,0c-2.036-2.614-5.806-3.083-8.421-1.046c-2.614,2.036-3.083,5.806-1.046,8.421
			c0.411,0.527,0.906,0.982,1.467,1.346c62.191,58.191,158.849,58.191,221.04,0C298.01,319.258,298.801,315.542,296.997,312.763z"/>
	</g>
</g>
<g>
</g>
<g>
</g>
<g>
</g>
<g>
</g>
<g>
</g>
<g>
</g>
<g>
</g>
<g>
</g>
<g>
</g>
<g>
</g>
<g>
</g>
<g>
</g>
<g>
</g>
<g>
</g>
<g>
</g>
</svg>
